<?xml version="1.0" encoding="utf-8"?>
<!-- Svg Vector Icons : http://www.onlinewebfonts.com/icon -->
<!DOCTYPE svg PUBLIC "-//W3C//DTD SVG 1.1//EN" "http://www.w3.org/Graphics/SVG/1.1/DTD/svg11.dtd">
<svg version="1.1" xmlns="http://www.w3.org/2000/svg" xmlns:xlink="http://www.w3.org/1999/xlink" x="0px" y="0px" viewBox="0 0 1000 1000" enable-background="new 0 0 1000 1000" xml:space="preserve">
<metadata> Svg Vector Icons : http://www.onlinewebfonts.com/icon </metadata>
<g><g><g><path d="M973.2,161.4H26.8c-9.3,0-16.8,7.5-16.8,16.8v643.5c0,9.3,7.5,16.8,16.8,16.8h946.3c9.3,0,16.8-7.6,16.8-16.8V178.2C990,168.9,982.5,161.4,973.2,161.4z M956.3,788.1c0,9.3-7.5,16.8-16.8,16.8h-879c-9.3,0-16.8-7.6-16.8-16.8V211.9c0-9.3,7.5-16.8,16.8-16.8h879c9.3,0,16.8,7.5,16.8,16.8L956.3,788.1L956.3,788.1z"/><path d="M83,572.7h42.3c9.3,0,16.8-7.6,16.8-16.8V444.2c0-9.3-7.5-16.8-16.8-16.8H83c-9.3,0-16.8,7.5-16.8,16.8v111.7C66.2,565.1,73.7,572.7,83,572.7z"/><path d="M922.9,427.3h-42.3c-9.3,0-16.8,7.5-16.8,16.8v111.7c0,9.3,7.5,16.8,16.8,16.8h42.3c9.3,0,16.8-7.6,16.8-16.8V444.2C939.7,434.9,932.2,427.3,922.9,427.3z"/><path d="M473.2,219h-318c-9.3,0-16.6,7.6-18.8,16.7c-6.3,26.5-27.1,47.3-53.5,53.6c-9,2.2-16.7,9.5-16.7,18.8v57.4c0,9.3,7.5,16.8,16.8,16.8h87.9c9.3,0,16.8,7.5,16.8,16.8v16c0,9.3,1.1,16.8,2.5,16.8h2.5c35.2,3.2,63,32.3,63,68.2c0,30.1-19.5,55.4-46.6,64.3c-8.8,2.9-17,3.5-17.7,3.5c-0.7,0-1.3,0-1.3,0c-0.4,0-0.8,0.1-1.2,0.1c-0.7,0.1-1.2,7.7-1.2,17c0,5.1,0,10.8,0,15.9c0,9.3-7.5,16.8-16.8,16.8H83c-9.3,0-16.8,7.6-16.8,16.8V692c0,9.3,7.6,16.6,16.7,18.8c26.5,6.3,47.3,27.1,53.6,53.6c2.1,9.1,9.5,16.7,18.8,16.7h318c9.3,0,16.8-7.5,16.8-16.8V582.6c0-9.3-7.4-18.5-15.6-23c-21.2-11.5-35.7-33.8-35.7-59.6c0-25.8,14.4-48.2,35.7-59.7c8.2-4.4,15.6-13.6,15.6-23V235.8C490,226.5,482.5,219,473.2,219z"/><path d="M920.6,617.8H835c-9.3,0-16.8-7.5-16.8-16.8v-16.1c0-9.3-0.3-16.8-0.6-16.8c-0.2,0-0.4,0-0.6,0h-0.8c-36.7-1.2-66.1-31.1-66.1-68c0-36.9,29.4-66.8,66.1-67.9c0.4,0,0.7-0.1,1-0.1c0.6-0.1,1-7.7,1-17c0-5.1,0-10.8,0-15.9c0-9.3,7.5-16.9,16.8-16.9h85.6c9.3,0,16.8-7.5,16.8-16.8V308c0-9.3-7.6-16.6-16.7-18.8c-26.5-6.3-47.3-27.1-53.6-53.6c-2.1-9.1-9.5-16.7-18.8-16.7H540.5c-9.3,0-16.8,7.5-16.8,16.8v181.6c0,9.3,7.5,18.5,15.6,23c21.2,11.5,35.7,33.8,35.7,59.7c0,25.8-14.4,48.2-35.7,59.6c-8.2,4.4-15.6,13.7-15.6,23v181.6c0,9.3,7.5,16.8,16.8,16.8h307.9c9.3,0,16.6-7.7,18.8-16.7c6.3-26.5,27.1-47.3,53.6-53.6c9-2.1,16.7-9.5,16.7-18.8v-57.4C937.4,625.3,929.9,617.8,920.6,617.8z"/></g></g><g></g><g></g><g></g><g></g><g></g><g></g><g></g><g></g><g></g><g></g><g></g><g></g><g></g><g></g><g></g></g>
</svg>